<svg width="11" height="9" viewBox="0 0 11 9" fill="none" xmlns="http://www.w3.org/2000/svg">
<path d="M10.1255 1.4624L3.67167 7.91618C3.63421 7.95369 3.58973 7.98344 3.54076 8.00374C3.49179 8.02404 3.4393 8.03448 3.38629 8.03448C3.33329 8.03448 3.2808 8.02404 3.23183 8.00374C3.18286 7.98344 3.13838 7.95369 3.10092 7.91618L0.277387 5.09265C0.2017 5.01697 0.15918 4.91431 0.15918 4.80728C0.15918 4.70024 0.2017 4.59758 0.277387 4.5219C0.353074 4.44621 0.455728 4.40369 0.562765 4.40369C0.669803 4.40369 0.772456 4.44621 0.848143 4.5219L3.38629 7.06055L9.5547 0.891645C9.63039 0.815958 9.73304 0.773437 9.84008 0.773438C9.94711 0.773438 10.0498 0.815958 10.1255 0.891645C10.2011 0.967332 10.2437 1.06999 10.2437 1.17702C10.2437 1.28406 10.2011 1.38671 10.1255 1.4624Z" fill="white"/>
</svg>
