<svg width="32" height="32" viewBox="0 0 32 32" fill="none" xmlns="http://www.w3.org/2000/svg">
<g clip-path="url(#clip0_13_1901)">
<path fill-rule="evenodd" clip-rule="evenodd" d="M20.5 11C20.5 13.4853 18.4853 15.5 16 15.5C13.5147 15.5 11.5 13.4853 11.5 11C11.5 8.51472 13.5147 6.5 16 6.5C18.4853 6.5 20.5 8.51472 20.5 11ZM16 14C17.6569 14 19 12.6569 19 11C19 9.34315 17.6569 8 16 8C14.3431 8 13 9.34315 13 11C13 12.6569 14.3431 14 16 14Z" fill="white"/>
<path fill-rule="evenodd" clip-rule="evenodd" d="M16 2.75C10.8724 2.75 6.75 6.7926 6.75 11.7377C6.75 13.3624 7.193 14.8851 7.96877 16.2001L16 27.6908L24.0312 16.2001C24.807 14.8851 25.25 13.3624 25.25 11.7377C25.25 6.7926 21.1276 2.75 16 2.75ZM5.25 11.7377C5.25 5.92684 10.0819 1.25 16 1.25C21.9181 1.25 26.75 5.92684 26.75 11.7377C26.75 13.6507 26.2243 15.4454 25.307 16.9896L25.2928 17.0135L16 30.3092L6.70719 17.0135L6.69302 16.9896C5.77567 15.4454 5.25 13.6507 5.25 11.7377Z" fill="white"/>
</g>
<defs>
<clipPath id="clip0_13_1901">
<rect width="32" height="32" fill="white"/>
</clipPath>
</defs>
</svg>
