<svg width="20" height="20" viewBox="0 0 20 20" fill="none" xmlns="http://www.w3.org/2000/svg">
<circle cx="10" cy="10" r="10" fill="#D61818"/>
<path d="M5.79831 16C5.58498 16 5.47831 15.8933 5.47831 15.68C5.47831 15.616 5.49965 15.5573 5.54231 15.504L13.4303 5.104C13.505 5.008 13.5743 4.93333 13.6383 4.88C13.713 4.82667 13.8196 4.8 13.9583 4.8H14.2303C14.4436 4.8 14.5503 4.90667 14.5503 5.12C14.5503 5.184 14.529 5.24267 14.4863 5.296L6.59831 15.696C6.52365 15.792 6.45431 15.8667 6.39031 15.92C6.32631 15.9733 6.21965 16 6.07031 16H5.79831ZM12.8223 16.096C12.129 16.096 11.5903 15.8987 11.2063 15.504C10.8223 15.0987 10.6143 14.576 10.5823 13.936C10.5716 13.6587 10.5663 13.4293 10.5663 13.248C10.5663 13.056 10.5716 12.8107 10.5823 12.512C10.6143 11.872 10.8116 11.3493 11.1743 10.944C11.537 10.5387 12.0863 10.336 12.8223 10.336C13.5583 10.336 14.1076 10.5387 14.4703 10.944C14.833 11.3493 15.0303 11.872 15.0623 12.512C15.0836 12.8107 15.0943 13.056 15.0943 13.248C15.0943 13.4293 15.0836 13.6587 15.0623 13.936C15.0303 14.576 14.8223 15.0987 14.4383 15.504C14.0543 15.8987 13.5156 16.096 12.8223 16.096ZM12.8223 15.2C13.1423 15.2 13.393 15.136 13.5743 15.008C13.7663 14.8693 13.905 14.6987 13.9903 14.496C14.0756 14.2933 14.1236 14.0907 14.1343 13.888C14.1556 13.5893 14.1663 13.3653 14.1663 13.216C14.1663 13.056 14.1556 12.8373 14.1343 12.56C14.1236 12.24 14.017 11.9413 13.8143 11.664C13.6223 11.376 13.2916 11.232 12.8223 11.232C12.353 11.232 12.0223 11.376 11.8303 11.664C11.6383 11.9413 11.5316 12.24 11.5103 12.56C11.4996 12.8373 11.4943 13.056 11.4943 13.216C11.4943 13.3653 11.4996 13.5893 11.5103 13.888C11.5316 14.0907 11.5796 14.2933 11.6543 14.496C11.7396 14.6987 11.873 14.8693 12.0543 15.008C12.2463 15.136 12.5023 15.2 12.8223 15.2ZM7.17431 10.4C6.48098 10.4 5.94231 10.2133 5.55831 9.84C5.17431 9.46667 4.96631 8.96 4.93431 8.32C4.92365 8.04267 4.91831 7.81333 4.91831 7.632C4.91831 7.44 4.92365 7.19467 4.93431 6.896C4.96631 6.256 5.16365 5.73333 5.52631 5.328C5.88898 4.92267 6.43831 4.72 7.17431 4.72C7.91031 4.72 8.45965 4.92267 8.82231 5.328C9.18498 5.73333 9.38231 6.256 9.41431 6.896C9.43565 7.19467 9.44631 7.44 9.44631 7.632C9.44631 7.81333 9.43565 8.04267 9.41431 8.32C9.38231 8.96 9.17431 9.46667 8.79031 9.84C8.40631 10.2133 7.86765 10.4 7.17431 10.4ZM7.17431 9.584C7.49431 9.584 7.74498 9.52 7.92631 9.392C8.11831 9.25333 8.25698 9.08267 8.34231 8.88C8.42765 8.67733 8.47565 8.47467 8.48631 8.272C8.50765 7.97333 8.51831 7.74933 8.51831 7.6C8.51831 7.44 8.50765 7.22133 8.48631 6.944C8.47565 6.624 8.36898 6.32533 8.16631 6.048C7.97431 5.76 7.64365 5.616 7.17431 5.616C6.70498 5.616 6.37431 5.76 6.18231 6.048C5.99031 6.32533 5.88365 6.624 5.86231 6.944C5.85165 7.22133 5.84631 7.44 5.84631 7.6C5.84631 7.74933 5.85165 7.97333 5.86231 8.272C5.88365 8.47467 5.93165 8.67733 6.00631 8.88C6.09165 9.08267 6.22498 9.25333 6.40631 9.392C6.59831 9.52 6.85431 9.584 7.17431 9.584Z" fill="white"/>
</svg>
