<svg width="26" height="26" viewBox="0 0 26 26" fill="none" xmlns="http://www.w3.org/2000/svg">
<path fill-rule="evenodd" clip-rule="evenodd" d="M7.64811 1.81977C8.95471 1.27856 10.3551 1 11.7694 1C13.1836 1 14.584 1.27856 15.8906 1.81977C17.1972 2.36098 18.3844 3.15425 19.3845 4.15428C20.3845 5.1543 21.1778 6.34151 21.719 7.64811C22.2602 8.95471 22.5387 10.3551 22.5387 11.7694C22.5387 13.1836 22.2602 14.584 21.719 15.8906C21.2959 16.9121 20.7187 17.8606 20.0092 18.7037L24.7296 23.4242C25.0901 23.7847 25.0901 24.3692 24.7296 24.7296C24.3692 25.0901 23.7847 25.0901 23.4242 24.7296L18.7037 20.0092C16.7701 21.6366 14.3163 22.5387 11.7694 22.5387C8.91316 22.5387 6.17392 21.4041 4.15428 19.3845C2.13463 17.3648 1 14.6256 1 11.7694C1 8.91316 2.13463 6.17393 4.15428 4.15428C5.1543 3.15425 6.34151 2.36098 7.64811 1.81977ZM11.7694 2.84615C10.5976 2.84615 9.43722 3.07696 8.3546 3.52539C7.27199 3.97383 6.2883 4.63111 5.4597 5.4597C3.78628 7.13313 2.84615 9.40279 2.84615 11.7694C2.84615 14.136 3.78628 16.4056 5.4597 18.079C7.13313 19.7525 9.40279 20.6926 11.7694 20.6926C14.136 20.6926 16.4056 19.7525 18.079 18.079C18.9076 17.2504 19.5649 16.2668 20.0133 15.1841C20.4618 14.1015 20.6926 12.9412 20.6926 11.7694C20.6926 10.5976 20.4618 9.43722 20.0134 8.3546C19.5649 7.27199 18.9076 6.2883 18.079 5.4597C17.2504 4.63111 16.2668 3.97383 15.1841 3.52539C14.1015 3.07696 12.9412 2.84615 11.7694 2.84615Z" fill="#111111"/>
</svg>
