<svg xmlns="http://www.w3.org/2000/svg" width="14" height="14" viewBox="0 0 14 14" fill="none">
                    <path d="M12.7045 5.29531C12.7981 5.38812 12.8724 5.49854 12.9232 5.62019C12.9739 5.74185 13 5.87234 13 6.00413C13 6.13593 12.9739 6.26642 12.9232 6.38808C12.8724 6.50973 12.7981 6.62015 12.7045 6.71296L7.70931 11.7047C7.61644 11.7983 7.50595 11.8725 7.38421 11.9232C7.26246 11.9739 7.13188 12 7 12C6.86812 12 6.73754 11.9739 6.61579 11.9232C6.49405 11.8725 6.38356 11.7983 6.29069 11.7047L1.29551 6.71296C1.20188 6.62015 1.12755 6.50973 1.07683 6.38808C1.02611 6.26642 1 6.13593 1 6.00413C1 5.87234 1.02611 5.74185 1.07683 5.62019C1.12755 5.49854 1.20188 5.38812 1.29551 5.29531C1.38839 5.20174 1.49888 5.12746 1.62062 5.07678C1.74236 5.0261 1.87294 5 2.00483 5C2.13671 5 2.26729 5.0261 2.38903 5.07678C2.51077 5.12746 2.62127 5.20174 2.71414 5.29531L7 9.5882L11.2859 5.29531C11.3787 5.20174 11.4892 5.12746 11.611 5.07678C11.7327 5.02609 11.8633 5 11.9952 5C12.1271 5 12.2576 5.02609 12.3794 5.07678C12.5011 5.12746 12.6116 5.20174 12.7045 5.29531Z" fill="#111111"/>
                  </svg>