<svg width="54" height="54" viewBox="0 0 54 54" fill="none" xmlns="http://www.w3.org/2000/svg">
<path d="M14.0498 41.4V41.75H14.3998H39.5998H39.9498V41.4V39.006C39.9498 37.2635 38.801 35.5638 36.6404 34.3176C34.4769 33.0696 31.2612 32.248 26.9998 32.248C22.7384 32.248 19.5227 33.0696 17.3592 34.3176C15.1986 35.5638 14.0498 37.2635 14.0498 39.006V41.4ZM26.9998 23.75C30.2478 23.75 32.8578 21.1685 32.8578 18C32.8578 14.8315 30.2478 12.25 26.9998 12.25C23.7518 12.25 21.1418 14.8315 21.1418 18C21.1418 21.1685 23.7518 23.75 26.9998 23.75ZM26.9998 26.65C22.1495 26.65 18.2418 22.7711 18.2418 18C18.2418 13.2289 22.1495 9.35 26.9998 9.35C31.8501 9.35 35.7578 13.2289 35.7578 18C35.7578 22.7711 31.8501 26.65 26.9998 26.65ZM26.9998 29.348C38.8786 29.348 42.8498 35.2599 42.8498 39.006V44.65H11.1498V39.006C11.1498 35.2599 15.121 29.348 26.9998 29.348Z" fill="#ffffff" stroke="#111" stroke-width="0.7"/>
</svg>
