<svg width="32" height="32" viewBox="0 0 32 32" fill="none" xmlns="http://www.w3.org/2000/svg">
<path d="M0.761905 2.28534V1.52344C0.559835 1.52344 0.366042 1.60371 0.223157 1.74659C0.0802718 1.88948 0 2.08327 0 2.28534H0.761905ZM17.5238 2.28534H18.2857C18.2857 2.08327 18.2054 1.88948 18.0626 1.74659C17.9197 1.60371 17.7259 1.52344 17.5238 1.52344V2.28534ZM17.5238 11.4282V10.6663C17.3217 10.6663 17.1279 10.7466 16.9851 10.8895C16.8422 11.0323 16.7619 11.2261 16.7619 11.4282H17.5238ZM0.761905 3.04725H17.5238V1.52344H0.761905V3.04725ZM16.7619 2.28534V26.6663H18.2857V2.28534H16.7619ZM1.52381 23.6187V2.28534H0V23.6187H1.52381ZM17.5238 12.1901H25.1429V10.6663H17.5238V12.1901ZM30.4762 17.5234V23.6187H32V17.5234H30.4762ZM18.2857 26.6663V11.4282H16.7619V26.6663H18.2857ZM26.7581 28.2815C26.3295 28.7096 25.7486 28.95 25.1429 28.95C24.5371 28.95 23.9562 28.7096 23.5276 28.2815L22.4488 29.3604C22.8025 29.7142 23.2225 29.9949 23.6848 30.1864C24.147 30.378 24.6425 30.4765 25.1429 30.4765C25.6432 30.4765 26.1387 30.378 26.6009 30.1864C27.0632 29.9949 27.4832 29.7142 27.837 29.3604L26.7596 28.2831L26.7581 28.2815ZM23.5276 25.0511C23.9562 24.623 24.5371 24.3826 25.1429 24.3826C25.7486 24.3826 26.3295 24.623 26.7581 25.0511L27.837 23.9722C27.4832 23.6183 27.0632 23.3376 26.6009 23.1461C26.1387 22.9546 25.6432 22.8561 25.1429 22.8561C24.6425 22.8561 24.147 22.9546 23.6848 23.1461C23.2225 23.3376 22.8025 23.6183 22.4488 23.9722L23.5261 25.0495L23.5276 25.0511ZM8.47238 28.2815C8.04381 28.7096 7.46286 28.95 6.85714 28.95C6.25143 28.95 5.67048 28.7096 5.2419 28.2815L4.16305 29.3604C4.51681 29.7142 4.93681 29.9949 5.39907 30.1864C5.86133 30.378 6.35678 30.4765 6.85714 30.4765C7.3575 30.4765 7.85296 30.378 8.31522 30.1864C8.77748 29.9949 9.19748 29.7142 9.55124 29.3604L8.4739 28.2831L8.47238 28.2815ZM5.2419 25.0511C5.67048 24.623 6.25143 24.3826 6.85714 24.3826C7.46286 24.3826 8.04381 24.623 8.47238 25.0511L9.55124 23.9722C9.19748 23.6183 8.77748 23.3376 8.31522 23.1461C7.85296 22.9546 7.3575 22.8561 6.85714 22.8561C6.35678 22.8561 5.86133 22.9546 5.39907 23.1461C4.93681 23.3376 4.51681 23.6183 4.16305 23.9722L5.24038 25.0495L5.2419 25.0511ZM26.7581 25.0511C27.2061 25.496 27.4286 26.0796 27.4286 26.6663H28.9524C28.9524 25.6926 28.5806 24.7158 27.837 23.9722L26.7596 25.0495L26.7581 25.0511ZM27.4286 26.6663C27.4286 27.253 27.2061 27.8366 26.7581 28.2815L27.837 29.3604C28.1911 29.0069 28.4719 28.5869 28.6633 28.1246C28.8547 27.6623 28.953 27.1667 28.9524 26.6663H27.4286ZM22.0952 25.9044H17.5238V27.4282H22.0952V25.9044ZM23.5276 28.2815C23.3149 28.0698 23.1462 27.8181 23.0311 27.5409C22.916 27.2637 22.8569 26.9664 22.8571 26.6663H21.3333C21.3333 27.64 21.7051 28.6168 22.4488 29.3604L23.5261 28.2831L23.5276 28.2815ZM22.8571 26.6663C22.8571 26.0796 23.0796 25.496 23.5276 25.0511L22.4488 23.9722C22.0946 24.3257 21.8138 24.7457 21.6224 25.208C21.431 25.6703 21.3327 26.1659 21.3333 26.6663H22.8571ZM5.2419 28.2815C5.02919 28.0698 4.86044 27.8181 4.74538 27.5409C4.63031 27.2637 4.57119 26.9664 4.57143 26.6663H3.04762C3.04762 27.64 3.41943 28.6168 4.16305 29.3604L5.24038 28.2831L5.2419 28.2815ZM4.57143 26.6663C4.57143 26.0796 4.7939 25.496 5.2419 25.0511L4.16305 23.9722C3.80892 24.3257 3.52809 24.7457 3.33667 25.208C3.14526 25.6703 3.04703 26.1659 3.04762 26.6663H4.57143ZM17.5238 25.9044H9.90476V27.4282H17.5238V25.9044ZM8.47238 25.0511C8.92038 25.496 9.14286 26.0796 9.14286 26.6663H10.6667C10.6667 25.6926 10.2949 24.7158 9.55124 23.9722L8.4739 25.0495L8.47238 25.0511ZM9.14286 26.6663C9.14286 27.253 8.92038 27.8366 8.47238 28.2815L9.55124 29.3604C9.90537 29.0069 10.1862 28.5869 10.3776 28.1246C10.569 27.6623 10.6673 27.1667 10.6667 26.6663H9.14286ZM30.4762 23.6187C30.4762 24.2249 30.2354 24.8063 29.8067 25.2349C29.3781 25.6636 28.7967 25.9044 28.1905 25.9044V27.4282C29.2008 27.4282 30.1698 27.0268 30.8842 26.3124C31.5986 25.598 32 24.629 32 23.6187H30.4762ZM25.1429 12.1901C26.5573 12.1901 27.9139 12.752 28.9141 13.7522C29.9143 14.7524 30.4762 16.1089 30.4762 17.5234H32C32 15.7048 31.2776 13.9607 29.9916 12.6747C28.7056 11.3887 26.9615 10.6663 25.1429 10.6663V12.1901ZM0 23.6187C0 24.629 0.401359 25.598 1.11578 26.3124C1.83021 27.0268 2.79918 27.4282 3.80952 27.4282V25.9044C3.20331 25.9044 2.62193 25.6636 2.19328 25.2349C1.76463 24.8063 1.52381 24.2249 1.52381 23.6187H0Z" fill="#111111"/>
<path d="M0.761719 9.90625H5.33315M0.761719 16.0015H8.38077" stroke="#111111" stroke-linecap="round" stroke-linejoin="round"/>
</svg>
