<svg width="206" height="57" viewBox="0 0 206 57" fill="none" xmlns="http://www.w3.org/2000/svg">
<g clip-path="url(#clip0_476_878)">
<path d="M181.958 56.4765C179.481 56.4765 177.233 55.8881 175.214 54.7113C173.194 53.4953 171.594 51.7694 170.412 49.5335C169.231 47.2977 168.641 44.6303 168.641 41.5315C168.641 38.3934 169.231 35.7064 170.412 33.4706C171.632 31.2347 173.194 29.5088 175.099 28.2928C177.004 27.0768 179.005 26.4688 181.101 26.4688C184.644 26.4688 187.369 27.6847 189.274 30.1168C191.217 32.5488 192.189 35.8045 192.189 39.884C192.189 40.3939 192.17 40.9039 192.132 41.4138C192.132 41.8845 192.094 42.2964 192.017 42.6494H173.27C173.461 45.6698 174.375 48.0822 176.014 49.8866C177.69 51.6909 179.862 52.5931 182.53 52.5931C183.863 52.5931 185.083 52.397 186.188 52.0048C187.331 51.5733 188.417 51.0241 189.445 50.3573L191.103 53.5346C189.922 54.3191 188.569 55.0055 187.045 55.5939C185.559 56.1823 183.863 56.4765 181.958 56.4765ZM173.213 39.1779H188.074C188.074 36.2752 187.464 34.0786 186.245 32.588C185.063 31.0582 183.387 30.2933 181.215 30.2933C179.272 30.2933 177.519 31.0778 175.957 32.6468C174.432 34.1766 173.518 36.3537 173.213 39.1779Z" fill="white"/>
<path d="M160.911 56.4834C157.939 56.4834 155.863 55.6008 154.681 53.8357C153.538 52.0705 152.967 49.7758 152.967 46.9516V31.1239H148.852V27.4759L153.195 27.1818L153.767 19.1797H157.711V27.1818H165.198V31.1239H157.711V47.0104C157.711 48.7756 158.016 50.1485 158.625 51.1291C159.273 52.0705 160.397 52.5412 161.997 52.5412C162.493 52.5412 163.026 52.4628 163.598 52.3059C164.169 52.1097 164.684 51.9332 165.141 51.7763L166.056 55.4243C165.293 55.6989 164.455 55.9343 163.541 56.1304C162.664 56.3658 161.788 56.4834 160.911 56.4834Z" fill="white"/>
<path d="M138.098 55.7716V27.176H142.785V55.7716H138.098ZM140.499 21.2921C139.585 21.2921 138.822 21.0175 138.213 20.4683C137.641 19.88 137.355 19.0954 137.355 18.1148C137.355 17.1734 137.641 16.4085 138.213 15.8201C138.822 15.2317 139.585 14.9375 140.499 14.9375C141.414 14.9375 142.157 15.2317 142.728 15.8201C143.338 16.4085 143.643 17.1734 143.643 18.1148C143.643 19.0954 143.338 19.88 142.728 20.4683C142.157 21.0175 141.414 21.2921 140.499 21.2921Z" fill="white"/>
<path fill-rule="evenodd" clip-rule="evenodd" d="M89.3086 35.0592V55.7704H93.9954V35.0592C96.5865 32.1173 98.9108 30.6463 100.968 30.6463C102.759 30.6463 104.074 31.2543 104.912 32.4703C105.75 33.6863 106.17 35.628 106.17 38.2953V55.7704H110.856V35.0592C113.448 32.1173 115.772 30.6463 117.829 30.6463C119.582 30.6463 120.878 31.2543 121.716 32.4703C122.554 33.6863 122.974 35.628 122.974 38.2953V55.7704H127.66V37.6481C127.66 34.0001 126.955 31.2347 125.546 29.3518C124.174 27.4298 122.059 26.4688 119.201 26.4688C117.525 26.4688 115.943 26.9787 114.457 27.9986C112.971 29.0184 111.504 30.3325 110.056 31.9408C109.485 30.2148 108.589 28.8811 107.37 27.9397C106.189 26.9591 104.531 26.4688 102.397 26.4688C100.759 26.4688 99.2156 26.9395 97.7677 27.8809C96.3197 28.7831 94.9861 29.9206 93.7668 31.2935L89.3086 35.0592Z" fill="#E1C372"/>
<path d="M55.6953 55.7704V27.1748H59.582L59.9821 31.2935H60.1535C61.3729 29.9206 62.7065 28.7831 64.1545 27.8809C65.6024 26.9395 67.1456 26.4688 68.7841 26.4688C70.9179 26.4688 72.5755 26.9591 73.7567 27.9397C74.976 28.8811 75.8715 30.2148 76.443 31.9408C77.891 30.3325 79.358 29.0184 80.844 27.9986C82.3301 26.9787 83.9114 26.4688 85.588 26.4688C88.4458 26.4688 90.5606 27.4298 91.9323 29.3518C93.3422 31.2347 94.0471 34.0001 94.0471 37.6481V55.7704H89.3603V38.2953C89.3603 35.628 88.9412 33.6863 88.1029 32.4703C87.2646 31.2543 85.969 30.6463 84.2163 30.6463C82.1586 30.6463 79.8343 32.1173 77.2432 35.0592V55.7704H72.5564V38.2953C72.5564 35.628 72.1373 33.6863 71.299 32.4703C70.4607 31.2543 69.1461 30.6463 67.3552 30.6463C65.2976 30.6463 62.9732 32.1173 60.3822 35.0592V55.7704H55.6953Z" fill="#E1C372"/>
<path d="M41.6297 55.7716V27.176H46.3165V55.7716H41.6297ZM44.0303 21.2921C43.1158 21.2921 42.3537 21.0175 41.7441 20.4683C41.1725 19.88 40.8867 19.0954 40.8867 18.1148C40.8867 17.1734 41.1725 16.4085 41.7441 15.8201C42.3537 15.2317 43.1158 14.9375 44.0303 14.9375C44.9448 14.9375 45.6878 15.2317 46.2594 15.8201C46.8691 16.4085 47.1739 17.1734 47.1739 18.1148C47.1739 19.0954 46.8691 19.88 46.2594 20.4683C45.6878 21.0175 44.9448 21.2921 44.0303 21.2921Z" fill="white"/>
<path d="M14.2891 55.7701V17.1719H19.033V51.5925H35.4368V55.7701H14.2891Z" fill="white"/>
<path d="M206 0H0V55.7742H2.08081V53.1001L2.05589 3.05612L203.894 2.86328L203.919 52.9073V55.7742H206V0Z" fill="#E1C372"/>
</g>
<defs>
<clipPath id="clip0_476_878">
<rect width="206" height="57" fill="white"/>
</clipPath>
</defs>
</svg>
