<svg width="12" height="7" viewBox="0 0 12 7" fill="none" xmlns="http://www.w3.org/2000/svg">
<path d="M11.7045 0.295309C11.7981 0.388118 11.8724 0.498536 11.9232 0.620193C11.9739 0.741851 12 0.872341 12 1.00413C12 1.13593 11.9739 1.26642 11.9232 1.38808C11.8724 1.50973 11.7981 1.62015 11.7045 1.71296L6.70931 6.70469C6.61644 6.79826 6.50595 6.87254 6.38421 6.92322C6.26246 6.97391 6.13188 7 6 7C5.86812 7 5.73754 6.97391 5.61579 6.92322C5.49405 6.87254 5.38356 6.79826 5.29069 6.70469L0.295514 1.71296C0.201875 1.62015 0.127552 1.50973 0.0768316 1.38808C0.0261123 1.26642 -2.56327e-07 1.13593 -2.62088e-07 1.00413C-2.67848e-07 0.872341 0.0261123 0.741852 0.0768315 0.620194C0.127552 0.498536 0.201875 0.388118 0.295514 0.295309C0.388386 0.201736 0.49888 0.127465 0.620621 0.0767799C0.742364 0.0260954 0.872943 9.54195e-09 1.00483 3.7771e-09C1.13671 -1.98776e-09 1.26729 0.0260954 1.38903 0.0767798C1.51077 0.127465 1.62127 0.201735 1.71414 0.295309L6 4.5882L10.2859 0.295309C10.3787 0.201735 10.4892 0.127464 10.611 0.0767794C10.7327 0.026095 10.8633 -4.2715e-07 10.9952 -4.32915e-07C11.1271 -4.3868e-07 11.2576 0.0260949 11.3794 0.0767794C11.5011 0.127464 11.6116 0.201735 11.7045 0.295309Z" fill="#111111"/>
</svg>
