<svg width="22" height="20" viewBox="0 0 22 20" fill="none" xmlns="http://www.w3.org/2000/svg" xmlns:xlink="http://www.w3.org/1999/xlink">
<rect width="22" height="20" fill="#F5F5F5"/>
<g id="&#208;&#147;&#208;&#190;&#209;&#130;&#208;&#190;&#208;&#178;&#209;&#139;&#208;&#181;">
<g id="&#209;&#129;&#209;&#130;&#209;&#128;&#208;&#176;&#208;&#189;&#208;&#184;&#209;&#134;&#208;&#176; &#209;&#130;&#208;&#190;&#208;&#176;&#209;&#128;&#208;&#176; (&#208;&#158; &#209;&#130;&#208;&#190;&#208;&#178;&#208;&#176;&#209;&#128;&#208;&#181;)" clip-path="url(#clip0_0_1)">
<rect width="1920" height="3789" transform="translate(-532 -419)" fill="white"/>
<rect id="IMG" x="-110" y="-33" width="636" height="886" fill="url(#pattern0)"/>
<g id="Group 84">
</g>
<rect id="Rectangle 598" x="-86" y="-9" width="122" height="39" fill="white"/>
<g id="ratin">
<path id="Star 1" d="M11 0L13.9095 6.99537L21.4616 7.60081L15.7077 12.5296L17.4656 19.8992L11 15.95L4.53436 19.8992L6.29227 12.5296L0.538379 7.60081L8.09046 6.99537L11 0Z" fill="#FFBE40"/>
</g>
</g>
<path d="M-13482 -5329H16580V-5331H-13482V-5329ZM16581 -5328V8140H16583V-5328H16581ZM16580 8141H-13482V8143H16580V8141ZM-13483 8140V-5328H-13485V8140H-13483ZM-13482 8141C-13482.6 8141 -13483 8140.55 -13483 8140H-13485C-13485 8141.66 -13483.7 8143 -13482 8143V8141ZM16581 8140C16581 8140.55 16580.6 8141 16580 8141V8143C16581.7 8143 16583 8141.66 16583 8140H16581ZM16580 -5329C16580.6 -5329 16581 -5328.55 16581 -5328H16583C16583 -5329.66 16581.7 -5331 16580 -5331V-5329ZM-13482 -5331C-13483.7 -5331 -13485 -5329.66 -13485 -5328H-13483C-13483 -5328.55 -13482.6 -5329 -13482 -5329V-5331Z" fill="black" fill-opacity="0.1"/>
</g>
<defs>
<pattern id="pattern0" patternContentUnits="objectBoundingBox" width="1" height="1">
<use xlink:href="#image0_0_1" transform="matrix(0.000833333 0 0 0.000598194 0 -0.0383747)"/>
</pattern>
<clipPath id="clip0_0_1">
<rect width="1920" height="3789" fill="white" transform="translate(-532 -419)"/>
</clipPath>

</defs>
</svg>
