<svg width="16" height="16" viewBox="0 0 16 16" fill="none" xmlns="http://www.w3.org/2000/svg">
<path d="M5.33333 12.2857C5.33333 12.0963 5.40357 11.9146 5.5286 11.7806C5.65362 11.6467 5.82319 11.5714 6 11.5714H10C10.1768 11.5714 10.3464 11.6467 10.4714 11.7806C10.5964 11.9146 10.6667 12.0963 10.6667 12.2857C10.6667 12.4752 10.5964 12.6568 10.4714 12.7908C10.3464 12.9247 10.1768 13 10 13H6C5.82319 13 5.65362 12.9247 5.5286 12.7908C5.40357 12.6568 5.33333 12.4752 5.33333 12.2857ZM2.66667 8C2.66667 7.81056 2.7369 7.62888 2.86193 7.49492C2.98695 7.36097 3.15652 7.28571 3.33333 7.28571H12.6667C12.8435 7.28571 13.013 7.36097 13.1381 7.49492C13.2631 7.62888 13.3333 7.81056 13.3333 8C13.3333 8.18944 13.2631 8.37112 13.1381 8.50508C13.013 8.63903 12.8435 8.71429 12.6667 8.71429H3.33333C3.15652 8.71429 2.98695 8.63903 2.86193 8.50508C2.7369 8.37112 2.66667 8.18944 2.66667 8ZM0 3.71429C0 3.52485 0.070238 3.34316 0.195262 3.20921C0.320287 3.07526 0.489856 3 0.666667 3H15.3333C15.5101 3 15.6797 3.07526 15.8047 3.20921C15.9298 3.34316 16 3.52485 16 3.71429C16 3.90373 15.9298 4.08541 15.8047 4.21936C15.6797 4.35332 15.5101 4.42857 15.3333 4.42857H0.666667C0.489856 4.42857 0.320287 4.35332 0.195262 4.21936C0.070238 4.08541 0 3.90373 0 3.71429Z" fill="#0E0E0E"/>
</svg>
