<svg width="14" height="14" viewBox="0 0 14 14" fill="none" xmlns="http://www.w3.org/2000/svg">
<path d="M7.29412 10.44V2.27333L10.3824 5.77333L10.8235 5.33333L7 1L3.17647 5.33333L3.61765 5.77333L6.70588 2.27333V10.44H7.29412ZM2 11H2.58824V12.3333H11.4118V11H12V13H2V11Z" fill="black"/>
<path fill-rule="evenodd" clip-rule="evenodd" d="M6.99961 0.773438L11.029 5.34005L10.375 5.99229L7.44373 2.6702V10.5902H6.55549V2.6702L3.62423 5.99229L2.97025 5.34005L6.99961 0.773438ZM3.38191 5.32692L3.61028 5.55468L6.85549 1.87677V10.2902H7.14373V1.87677L10.3889 5.55468L10.6173 5.32692L6.99961 1.22687L3.38191 5.32692ZM1.84961 10.8502H2.73784V12.1835H11.2614V10.8502H12.1496V13.1502H1.84961V10.8502ZM2.14961 11.1502V12.8502H11.8496V11.1502H11.5614V12.4835H2.43784V11.1502H2.14961Z" fill="black"/>
</svg>
