<svg width="26" height="26" viewBox="0 0 26 26" fill="none" xmlns="http://www.w3.org/2000/svg">
<rect x="0.5" y="0.5" width="25" height="25" rx="12.5" fill="white" stroke="#111111"/>
<path fill-rule="evenodd" clip-rule="evenodd" d="M17.729 7.3209C17.7294 7.32102 17.7297 7.3212 17.7304 7.32187L18.6782 8.26967C18.6789 8.27035 18.6791 8.27066 18.6792 8.27105C18.6793 8.27142 18.6793 8.27182 18.6792 8.27219C18.6791 8.27256 18.6789 8.27288 18.6782 8.27355L13.9515 13.0003L18.6782 17.727C18.6789 17.7277 18.6791 17.728 18.6792 17.7284C18.6793 17.7288 18.6793 17.7292 18.6792 17.7295C18.6791 17.7299 18.6789 17.7302 18.6782 17.7309L17.7304 18.6787C17.7297 18.6794 17.7294 18.6796 17.729 18.6797C17.7287 18.6798 17.7283 18.6798 17.7279 18.6797C17.7275 18.6796 17.7272 18.6794 17.7265 18.6787L12.9998 13.952L8.27306 18.6787C8.27241 18.6794 8.27208 18.6796 8.2717 18.6797C8.27132 18.6798 8.27092 18.6798 8.27055 18.6797C8.27019 18.6796 8.26986 18.6794 8.26919 18.6787L7.32138 17.7309C7.32071 17.7302 7.32053 17.7299 7.32041 17.7295C7.32028 17.7292 7.32028 17.7288 7.32041 17.7284C7.32053 17.728 7.32071 17.7277 7.32138 17.727L12.0481 13.0003L7.32138 8.27355C7.32071 8.27289 7.32053 8.27256 7.32041 8.27219C7.3203 8.27181 7.3203 8.27141 7.32041 8.27104C7.32053 8.27068 7.32071 8.27035 7.32138 8.26967L8.26919 7.32187C8.26986 7.3212 8.27017 7.32102 8.27057 7.3209C8.27093 7.32077 8.27133 7.32077 8.2717 7.3209C8.27208 7.32102 8.27239 7.3212 8.27306 7.32187L12.9998 12.0486L17.7265 7.32187C17.7272 7.3212 17.7275 7.32102 17.7279 7.3209C17.7283 7.32079 17.7287 7.32079 17.7291 7.3209H17.729Z" fill="black"/>
</svg>
