<svg width="32" height="32" viewBox="0 0 32 32" fill="none" xmlns="http://www.w3.org/2000/svg">
<path fill-rule="evenodd" clip-rule="evenodd" d="M15.6992 0.255267C15.7285 0.251789 15.7583 0.25 15.7885 0.25H16.2114C16.2415 0.25 16.2712 0.251769 16.3003 0.25521C17.7886 0.324002 18.9163 0.695513 19.7555 1.26961C20.6198 1.86097 21.1247 2.63101 21.4087 3.38059C21.6895 4.12173 21.755 4.84248 21.7541 5.3673C21.7541 5.37555 21.754 5.38377 21.754 5.39194L23.7708 5.39467C23.7799 5.39445 23.7912 5.39428 23.8045 5.39422C23.8322 5.39411 23.8687 5.39454 23.913 5.39634C24.0012 5.39993 24.1214 5.40902 24.2638 5.43057C24.546 5.47329 24.9312 5.56735 25.3303 5.77692C26.17 6.21788 26.9538 7.11158 27.0799 8.74134L29.7385 27.6946C29.7407 27.7108 29.7425 27.7271 29.7437 27.7433L28.9957 27.7988C29.7437 27.7433 29.7437 27.743 29.7437 27.7433L29.7438 27.7449L29.7439 27.7469L29.7443 27.7516L29.7451 27.765C29.7457 27.7755 29.7464 27.7892 29.7471 27.806C29.7485 27.8396 29.7498 27.8855 29.75 27.9418C29.7504 28.0542 29.7463 28.2102 29.7293 28.395C29.6957 28.7598 29.6094 29.2623 29.3885 29.7705C29.1657 30.2831 28.7968 30.8205 28.1934 31.209C27.5911 31.5968 26.8182 31.7954 25.8577 31.7412H16.0208L15.9661 31.7404H6.14231C5.18212 31.7948 4.40934 31.5964 3.80704 31.2089C3.20368 30.8206 2.83473 30.2834 2.61181 29.7709C2.39085 29.2629 2.30441 28.7605 2.27077 28.3958C2.25373 28.211 2.24967 28.0551 2.25002 27.9427C2.2502 27.8864 2.25149 27.8405 2.25286 27.807C2.25355 27.7902 2.25426 27.7764 2.25487 27.7659L2.2557 27.7526L2.25602 27.7478L2.25616 27.7459C2.25619 27.7455 2.25628 27.7443 3.00423 27.7996L2.25628 27.7443C2.25748 27.7279 2.25923 27.7116 2.2615 27.6954L4.92006 8.74204C5.0466 7.11207 5.83015 6.21808 6.66968 5.77678C7.06871 5.56703 7.45382 5.47282 7.736 5.42998C7.87838 5.40837 7.99856 5.39923 8.08675 5.39561C8.13098 5.3938 8.16754 5.39336 8.19526 5.39346C8.20871 5.39351 8.22012 5.39369 8.22935 5.39391L10.246 5.39227C10.2459 5.3842 10.2459 5.37608 10.2459 5.36793C10.245 4.84304 10.3105 4.12219 10.5914 3.38096C10.8754 2.63129 11.3804 1.86116 12.2448 1.26973C13.0838 0.695722 14.2113 0.32421 15.6992 0.255267ZM15.8569 1.75C14.5338 1.79838 13.6658 2.11506 13.0918 2.50772C12.5194 2.89931 12.1874 3.40194 11.9941 3.91238C11.7975 4.43126 11.7452 4.95789 11.7459 5.36544C11.7459 5.37421 11.7459 5.38292 11.746 5.39155L20.254 5.39089C20.254 5.38225 20.2541 5.37354 20.2541 5.36477C20.2548 4.95729 20.2025 4.43077 20.006 3.91199C19.8127 3.40164 19.4807 2.89912 18.9085 2.5076C18.3346 2.11501 17.4667 1.79838 16.1438 1.75H15.8569ZM8.21948 6.89392L20.9418 6.89084L8.21948 6.89392ZM8.19328 6.89348C8.19328 6.89348 8.19328 6.89348 8.19328 6.89348C8.19254 6.89347 8.19131 6.89346 8.18961 6.89345C8.18281 6.89342 8.16869 6.89351 8.14827 6.89435C8.10717 6.89604 8.04219 6.90069 7.96111 6.91299C7.79639 6.938 7.58139 6.99215 7.36761 7.10452C6.98596 7.30514 6.49695 7.74332 6.41414 8.87705C6.41293 8.89362 6.41117 8.91014 6.40886 8.9266L3.75148 27.8716C3.75084 27.8879 3.75012 27.9136 3.75001 27.9475C3.74979 28.02 3.75241 28.1277 3.76443 28.258C3.78893 28.5236 3.85015 28.8573 3.98731 29.1726C4.12251 29.4834 4.32215 29.7566 4.61873 29.9475C4.91147 30.1358 5.36232 30.2851 6.07485 30.2418C6.09 30.2409 6.10517 30.2404 6.12034 30.2404H15.9807L16.0354 30.2412H25.8796C25.8947 30.2412 25.9099 30.2416 25.9249 30.2425C26.6376 30.2857 27.0886 30.1363 27.3814 29.9478C27.6781 29.7568 27.8777 29.4834 28.0129 29.1724C28.15 28.857 28.2112 28.5232 28.2356 28.2576C28.2476 28.1272 28.2502 28.0194 28.25 27.9469C28.2499 27.913 28.2491 27.8872 28.2485 27.8709L25.5911 8.92583C25.5888 8.90931 25.587 8.89272 25.5858 8.87609C25.5033 7.743 25.0145 7.30534 24.6329 7.10496C24.4191 6.9927 24.2041 6.93863 24.0393 6.91368C23.9581 6.9014 23.8931 6.89677 23.852 6.8951C23.8316 6.89427 23.8174 6.89418 23.8106 6.89421C23.8089 6.89422 23.8077 6.89423 23.8069 6.89424C23.798 6.89455 23.789 6.8947 23.7801 6.89468L20.9418 6.89084" fill="white"/>
</svg>
