<svg xmlns="http://www.w3.org/2000/svg" width="24" height="24" viewBox="0 0 24 24" fill="none">
  <path d="M17.3571 1.6875C15.1446 1.6875 13.2075 2.64163 12 4.25441C10.7925 2.64163 8.85536 1.6875 6.64286 1.6875C4.88167 1.68949 3.19319 2.39199 1.94784 3.64087C0.702493 4.88976 0.00198508 6.58304 0 8.34923C0 15.8705 11.1204 21.9585 11.5939 22.2099C11.7187 22.2773 11.8583 22.3125 12 22.3125C12.1417 22.3125 12.2813 22.2773 12.4061 22.2099C12.8796 21.9585 24 15.8705 24 8.34923C23.998 6.58304 23.2975 4.88976 22.0522 3.64087C20.8068 2.39199 19.1183 1.68949 17.3571 1.6875ZM12 20.4693C10.0436 19.326 1.71429 14.1181 1.71429 8.34923C1.71599 7.0389 2.23579 5.78273 3.15971 4.85619C4.08363 3.92964 5.33624 3.40836 6.64286 3.40666C8.72679 3.40666 10.4764 4.51981 11.2071 6.30773C11.2717 6.46539 11.3816 6.60023 11.5228 6.69513C11.6639 6.79003 11.83 6.8407 12 6.8407C12.17 6.8407 12.3361 6.79003 12.4773 6.69513C12.6184 6.60023 12.7283 6.46539 12.7929 6.30773C13.5236 4.51659 15.2732 3.40666 17.3571 3.40666C18.6638 3.40836 19.9164 3.92964 20.8403 4.85619C21.7642 5.78273 22.284 7.0389 22.2857 8.34923C22.2857 14.1095 13.9543 19.325 12 20.4693Z" fill="white"/>
  <path d="M12 20.4693C10.0436 19.326 1.71429 14.1181 1.71429 8.34923C1.71599 7.0389 2.23579 5.78273 3.15971 4.85619C4.08363 3.92964 5.33624 3.40836 6.64286 3.40666C8.72679 3.40666 10.4764 4.51981 11.2071 6.30773C11.2717 6.46539 11.3816 6.60023 11.5228 6.69513C11.6639 6.79003 11.83 6.8407 12 6.8407C12.17 6.8407 12.3361 6.79003 12.4773 6.69513C12.6184 6.60023 12.7283 6.46539 12.7929 6.30773C13.5236 4.51659 15.2732 3.40666 17.3571 3.40666C18.6638 3.40836 19.9164 3.92964 20.8403 4.85619C21.7642 5.78273 22.284 7.0389 22.2857 8.34923C22.2857 14.1095 13.9543 19.325 12 20.4693Z" fill="white"/>
  <path d="M17.3571 1.6875C15.1446 1.6875 13.2075 2.64163 12 4.25441C10.7925 2.64163 8.85536 1.6875 6.64286 1.6875C4.88167 1.68949 3.19319 2.39199 1.94784 3.64087C0.702493 4.88976 0.00198508 6.58304 0 8.34923C0 15.8705 11.1204 21.9585 11.5939 22.2099C11.7187 22.2773 11.8583 22.3125 12 22.3125C12.1417 22.3125 12.2813 22.2773 12.4061 22.2099C12.8796 21.9585 24 15.8705 24 8.34923C23.998 6.58304 23.2975 4.88976 22.0522 3.64087C20.8068 2.39199 19.1183 1.68949 17.3571 1.6875ZM12 20.4693C10.0436 19.326 1.71429 14.1181 1.71429 8.34923C1.71599 7.0389 2.23579 5.78273 3.15971 4.85619C4.08363 3.92964 5.33624 3.40836 6.64286 3.40666C8.72679 3.40666 10.4764 4.51981 11.2071 6.30773C11.2717 6.46539 11.3816 6.60023 11.5228 6.69513C11.6639 6.79003 11.83 6.8407 12 6.8407C12.17 6.8407 12.3361 6.79003 12.4773 6.69513C12.6184 6.60023 12.7283 6.46539 12.7929 6.30773C13.5236 4.51658 15.2732 3.40666 17.3571 3.40666C18.6638 3.40836 19.9164 3.92964 20.8403 4.85619C21.7642 5.78273 22.284 7.0389 22.2857 8.34923C22.2857 14.1095 13.9543 19.325 12 20.4693Z" fill="#111111"/>
</svg>