<?xml version="1.0" encoding="UTF-8"?>
<!DOCTYPE svg PUBLIC "-//W3C//DTD SVG 1.1//EN" "http://www.w3.org/Graphics/SVG/1.1/DTD/svg11.dtd">
<!-- Creator: CorelDRAW 2020 (64-Bit) -->
<svg xmlns="http://www.w3.org/2000/svg" xml:space="preserve" width="90.3111mm" height="35.2778mm" version="1.1" style="shape-rendering:geometricPrecision; text-rendering:geometricPrecision; image-rendering:optimizeQuality; fill-rule:evenodd; clip-rule:evenodd"
viewBox="0 0 431.517 168.561"
 xmlns:xlink="http://www.w3.org/1999/xlink"
 xmlns:xodm="http://www.corel.com/coreldraw/odm/2003">
 <defs>
  <style type="text/css">
   <![CDATA[
    .fil2 {fill:none}
    .fil0 {fill:#E1C372;fill-rule:nonzero}
    .fil1 {fill:white;fill-rule:nonzero}
   ]]>
  </style>
 </defs>
 <g id="__x0023_Layer_x0020_1">
  <metadata id="CorelCorpID_0Corel-Layer"/>
  <g id="_2016754990304">
   <g>
    <path class="fil0" d="M140.239 126.978l0 -44.345 6.205 0 0.639 6.387 0.274 0c1.947,-2.129 4.075,-3.893 6.387,-5.292 2.311,-1.46 4.775,-2.19 7.39,-2.19 3.407,0 6.052,0.76 7.938,2.281 1.946,1.46 3.376,3.528 4.288,6.204 2.312,-2.494 4.653,-4.532 7.026,-6.113 2.372,-1.582 4.897,-2.372 7.573,-2.372 4.562,0 7.939,1.49 10.128,4.471 0.824,1.068 1.497,2.321 2.019,3.756l0.908 -0.745c1.947,-2.129 4.076,-3.893 6.387,-5.292 2.311,-1.46 4.775,-2.19 7.39,-2.19 3.407,0 6.053,0.76 7.939,2.281 1.947,1.46 3.376,3.528 4.288,6.204 2.312,-2.494 4.653,-4.532 7.026,-6.113 2.372,-1.582 4.897,-2.372 7.573,-2.372 4.562,0 7.938,1.49 10.128,4.471 2.251,2.92 3.377,7.208 3.377,12.866l0 28.103 -7.483 0 0 -27.1c0,-4.136 -0.669,-7.147 -2.007,-9.033 -1.338,-1.886 -3.407,-2.829 -6.205,-2.829 -3.285,0 -6.996,2.281 -11.132,6.843l0 32.118 -7.483 0 0 -27.1c0,-4.136 -0.669,-7.147 -2.007,-9.033 -1.338,-1.886 -3.437,-2.829 -6.296,-2.829 -3.285,0 -6.996,2.281 -11.132,6.843l0 1.432c0.056,0.827 0.085,1.688 0.085,2.584l0 28.103 -0.085 0 -7.397 0 -0.085 0 0 -29.504c-0.218,-2.92 -0.86,-5.13 -1.922,-6.628 -1.339,-1.886 -3.407,-2.829 -6.205,-2.829 -3.285,0 -6.996,2.281 -11.132,6.843l0 32.118 -7.483 0 0 -27.1c0,-4.136 -0.669,-7.147 -2.007,-9.033 -1.338,-1.886 -3.437,-2.829 -6.296,-2.829 -3.285,0 -6.996,2.281 -11.132,6.843l0 32.118 -7.483 0zm239.95 -86.492l-328.861 0 0 86.492 3.322 0 0 -4.147 -0.04 -77.606 322.218 -0.299 0.039 77.606 0 4.446 3.322 0 0 -86.492z"/>
    <path class="fil1" d="M74.14 126.978l0 -59.856 7.573 0 0 53.378 26.187 0 0 6.478 -33.76 0zm197.653 0l0 -44.345 7.482 0 0 44.345 -7.482 0zm3.832 -53.469c-1.46,0 -2.676,-0.426 -3.65,-1.277 -0.912,-0.913 -1.368,-2.129 -1.368,-3.65 0,-1.46 0.456,-2.646 1.368,-3.559 0.974,-0.912 2.19,-1.368 3.65,-1.368 1.46,0 2.647,0.456 3.558,1.368 0.974,0.913 1.46,2.099 1.46,3.559 0,1.521 -0.486,2.737 -1.46,3.65 -0.912,0.851 -2.098,1.277 -3.558,1.277zm32.583 54.564c-4.745,0 -8.06,-1.369 -9.946,-4.106 -1.825,-2.737 -2.738,-6.296 -2.738,-10.676l0 -24.545 -6.569 0 0 -5.657 6.934 -0.456 0.913 -12.409 6.296 0 0 12.409 11.953 0 0 6.113 -11.953 0 0 24.636c0,2.737 0.487,4.867 1.46,6.387 1.034,1.46 2.828,2.19 5.384,2.19 0.791,0 1.642,-0.122 2.554,-0.365 0.913,-0.304 1.734,-0.578 2.464,-0.821l1.459 5.658c-1.216,0.425 -2.554,0.79 -4.015,1.094 -1.399,0.365 -2.798,0.548 -4.197,0.548zm33.598 0c-3.953,0 -7.542,-0.913 -10.767,-2.737 -3.224,-1.886 -5.779,-4.563 -7.664,-8.03 -1.886,-3.467 -2.829,-7.603 -2.829,-12.409 0,-4.866 0.943,-9.033 2.829,-12.501 1.946,-3.467 4.44,-6.144 7.482,-8.029 3.042,-1.886 6.235,-2.829 9.58,-2.829 5.657,0 10.007,1.885 13.049,5.657 3.102,3.771 4.653,8.82 4.653,15.147 0,0.791 -0.031,1.582 -0.091,2.372 0,0.73 -0.061,1.369 -0.183,1.917l-29.928 0c0.304,4.684 1.764,8.425 4.379,11.223 2.677,2.798 6.144,4.197 10.402,4.197 2.13,0 4.076,-0.304 5.84,-0.912 1.825,-0.669 3.558,-1.521 5.201,-2.555l2.646 4.927c-1.885,1.217 -4.045,2.281 -6.478,3.193 -2.373,0.913 -5.079,1.369 -8.121,1.369zm-13.96 -26.826l23.723 0c0,-4.501 -0.972,-7.908 -2.919,-10.219 -1.886,-2.372 -4.562,-3.559 -8.03,-3.559 -3.102,0 -5.9,1.217 -8.394,3.65 -2.433,2.372 -3.893,5.748 -4.379,10.128zm-210.06 25.731l0 -44.345 7.482 0 0 44.345 -7.482 0zm3.832 -53.469c-1.46,0 -2.677,-0.426 -3.65,-1.277 -0.913,-0.913 -1.369,-2.129 -1.369,-3.65 0,-1.46 0.456,-2.646 1.369,-3.559 0.973,-0.912 2.19,-1.368 3.65,-1.368 1.46,0 2.646,0.456 3.559,1.368 0.973,0.913 1.46,2.099 1.46,3.559 0,1.521 -0.487,2.737 -1.46,3.65 -0.913,0.851 -2.099,1.277 -3.559,1.277z"/>
   </g>
   <rect class="fil2" x="-0" y="-0" width="431.517" height="168.561"/>
  </g>
 </g>
</svg>
