<svg width="16" height="16" viewBox="0 0 16 16" fill="none" xmlns="http://www.w3.org/2000/svg">
<g clip-path="url(#clip0_54_1691)">
<path fill-rule="evenodd" clip-rule="evenodd" d="M4.43207 0.546513C5.30314 0.185705 6.23674 0 7.17958 0C8.12242 0 9.05602 0.185705 9.92709 0.546513C10.7982 0.907321 11.5896 1.43616 12.2563 2.10285C12.923 2.76954 13.4518 3.56101 13.8126 4.43207C14.1735 5.30314 14.3592 6.23674 14.3592 7.17958C14.3592 8.12242 14.1735 9.05602 13.8126 9.92709C13.5306 10.6081 13.1458 11.2404 12.6728 11.8025L15.8198 14.9495C16.0601 15.1898 16.0601 15.5794 15.8198 15.8198C15.5794 16.0601 15.1898 16.0601 14.9495 15.8198L11.8025 12.6728C10.5134 13.7577 8.87751 14.3592 7.17958 14.3592C5.27544 14.3592 3.44928 13.6027 2.10285 12.2563C0.756418 10.9099 0 9.08372 0 7.17958C0 5.27544 0.756418 3.44928 2.10285 2.10285C2.76954 1.43616 3.56101 0.907321 4.43207 0.546513ZM7.17958 1.23076C6.39837 1.23076 5.62481 1.38463 4.90306 1.68358C4.18132 1.98254 3.52553 2.42073 2.97313 2.97313C1.85751 4.08875 1.23076 5.60185 1.23076 7.17958C1.23076 8.75731 1.85751 10.2704 2.97313 11.386C4.08875 12.5017 5.60185 13.1284 7.17958 13.1284C8.75731 13.1284 10.2704 12.5017 11.386 11.386C11.9384 10.8336 12.3766 10.1778 12.6756 9.4561C12.9745 8.73435 13.1284 7.96079 13.1284 7.17958C13.1284 6.39837 12.9745 5.62481 12.6756 4.90306C12.3766 4.18132 11.9384 3.52553 11.386 2.97313C10.8336 2.42073 10.1778 1.98254 9.4561 1.68358C8.73435 1.38463 7.96079 1.23076 7.17958 1.23076Z" fill="#4D4D4D"/>
</g>
<defs>
<clipPath id="clip0_54_1691">
<rect width="16" height="16" fill="white"/>
</clipPath>
</defs>
</svg>
